Khula-Bold_old.ufo
<glyph name="exclam" format="1">
  <advance width="695"/>
  <unicode hex="0021"/>
  <outline>
    <contour>
      <point x="459" y="436" type="line"/>
      <point x="240" y="436" type="line"/>
      <point x="194" y="1316" type="line"/>
      <point x="505" y="1316" type="line"/>
    </contour>
    <contour>
      <point x="190" y="129" type="curve" smooth="yes"/>
      <point x="190" y="229"/>
      <point x="245" y="282"/>
      <point x="349" y="282" type="curve" smooth="yes"/>
      <point x="448" y="282"/>
      <point x="505" y="226"/>
      <point x="505" y="129" type="curve" smooth="yes"/>
      <point x="505" y="34"/>
      <point x="446" y="-24"/>
      <point x="349" y="-24" type="curve" smooth="yes"/>
      <point x="248" y="-24"/>
      <point x="190" y="32"/>
    </contour>
  </outline>
</glyph>
<glyph name="period" format="1">
  <advance width="526"/>
  <unicode hex="002E"/>
  <outline>
    <contour>
      <point x="105" y="129" type="curve" smooth="yes"/>
      <point x="105" y="229"/>
      <point x="160" y="282"/>
      <point x="264" y="282" type="curve" smooth="yes"/>
      <point x="363" y="282"/>
      <point x="420" y="226"/>
      <point x="420" y="129" type="curve" smooth="yes"/>
      <point x="420" y="34"/>
      <point x="361" y="-24"/>
      <point x="264" y="-24" type="curve" smooth="yes"/>
      <point x="163" y="-24"/>
      <point x="105" y="32"/>
    </contour>
  </outline>
</glyph>
<glyph name="zero" format="1">
  <advance width="1052"/>
  <unicode hex="0030"/>
  <outline>
    <contour>
      <point x="986" y="658" type="curve" smooth="yes"/>
      <point x="986" y="198"/>
      <point x="838" y="-18"/>
      <point x="526" y="-18" type="curve" smooth="yes"/>
      <point x="222" y="-18"/>
      <point x="67" y="213"/>
      <point x="67" y="658" type="curve" smooth="yes"/>
      <point x="67" y="1122"/>
      <point x="214" y="1336"/>
      <point x="526" y="1336" type="curve" smooth="yes"/>
      <point x="829" y="1336"/>
      <point x="986" y="1102"/>
    </contour>
    <contour>
      <point x="343" y="658" type="curve" smooth="yes"/>
      <point x="343" y="497"/>
      <point x="357" y="381"/>
      <point x="385" y="311" type="curve" smooth="yes"/>
      <point x="413" y="241"/>
      <point x="460" y="206"/>
      <point x="526" y="206" type="curve" smooth="yes"/>
      <point x="591" y="206"/>
      <point x="637" y="241"/>
      <point x="666" y="312" type="curve" smooth="yes"/>
      <point x="695" y="383"/>
      <point x="709" y="498"/>
      <point x="709" y="658" type="curve" smooth="yes"/>
      <point x="709" y="819"/>
      <point x="694" y="935"/>
      <point x="665" y="1005" type="curve" smooth="yes"/>
      <point x="636" y="1076"/>
      <point x="590" y="1111"/>
      <point x="526" y="1111" type="curve" smooth="yes"/>
      <point x="460" y="1111"/>
      <point x="413" y="1076"/>
      <point x="385" y="1005" type="curve" smooth="yes"/>
      <point x="357" y="935"/>
      <point x="343" y="819"/>
    </contour>
  </outline>
</glyph>
<glyph name="eight" format="1">
  <advance width="1052"/>
  <unicode hex="0038"/>
  <outline>
    <contour>
      <point x="527" y="1333" type="curve" smooth="yes"/>
      <point x="653" y="1333"/>
      <point x="755" y="1304"/>
      <point x="832" y="1247" type="curve" smooth="yes"/>
      <point x="909" y="1190"/>
      <point x="948" y="1112"/>
      <point x="948" y="1015" type="curve" smooth="yes"/>
      <point x="948" y="880"/>
      <point x="877" y="778"/>
      <point x="712" y="695" type="curve"/>
      <point x="908" y="590"/>
      <point x="988" y="478"/>
      <point x="988" y="341" type="curve" smooth="yes"/>
      <point x="988" y="233"/>
      <point x="946" y="146"/>
      <point x="861" y="80" type="curve" smooth="yes"/>
      <point x="776" y="15"/>
      <point x="665" y="-18"/>
      <point x="527" y="-18" type="curve" smooth="yes"/>
      <point x="383" y="-18"/>
      <point x="270" y="13"/>
      <point x="188" y="74" type="curve" smooth="yes"/>
      <point x="106" y="135"/>
      <point x="65" y="222"/>
      <point x="65" y="334" type="curve" smooth="yes"/>
      <point x="65" y="483"/>
      <point x="140" y="599"/>
      <point x="317" y="688" type="curve"/>
      <point x="166" y="783"/>
      <point x="105" y="889"/>
      <point x="105" y="1017" type="curve" smooth="yes"/>
      <point x="105" y="1111"/>
      <point x="144" y="1187"/>
      <point x="222" y="1245" type="curve" smooth="yes"/>
      <point x="300" y="1304"/>
      <point x="402" y="1333"/>
    </contour>
    <contour>
      <point x="322" y="350" type="curve" smooth="yes"/>
      <point x="322" y="247"/>
      <point x="399" y="186"/>
      <point x="524" y="186" type="curve" smooth="yes"/>
      <point x="661" y="186"/>
      <point x="730" y="251"/>
      <point x="730" y="348" type="curve" smooth="yes"/>
      <point x="730" y="429"/>
      <point x="666" y="494"/>
      <point x="514" y="573" type="curve"/>
      <point x="386" y="514"/>
      <point x="322" y="440"/>
    </contour>
    <contour>
      <point x="526" y="1129" type="curve" smooth="yes"/>
      <point x="430" y="1129"/>
      <point x="367" y="1078"/>
      <point x="367" y="995" type="curve" smooth="yes"/>
      <point x="367" y="959"/>
      <point x="378" y="927"/>
      <point x="401" y="898" type="curve" smooth="yes"/>
      <point x="424" y="870"/>
      <point x="466" y="841"/>
      <point x="527" y="811" type="curve"/>
      <point x="646" y="866"/>
      <point x="686" y="920"/>
      <point x="686" y="995" type="curve" smooth="yes"/>
      <point x="686" y="1078"/>
      <point x="619" y="1129"/>
    </contour>
  </outline>
</glyph>
<glyph name="greater" format="1">
  <advance width="1052"/>
  <unicode hex="003E"/>
  <outline>
    <contour>
      <point x="79" y="398" type="line"/>
      <point x="695" y="651" type="line"/>
      <point x="79" y="936" type="line"/>
      <point x="79" y="1152" type="line"/>
      <point x="973" y="706" type="line"/>
      <point x="973" y="577" type="line"/>
      <point x="79" y="183" type="line"/>
    </contour>
  </outline>
</glyph>
<glyph name="M" format="1">
  <advance width="1738"/>
  <unicode hex="004D"/>
  <outline>
    <contour>
      <point x="723" y="0" type="line"/>
      <point x="406" y="1032" type="line"/>
      <point x="398" y="1032" type="line"/>
      <point x="409" y="822"/>
      <point x="415" y="682"/>
      <point x="415" y="612" type="curve" smooth="yes"/>
      <point x="415" y="0" type="line"/>
      <point x="166" y="0" type="line"/>
      <point x="166" y="1316" type="line"/>
      <point x="545" y="1316" type="line"/>
      <point x="857" y="310" type="line"/>
      <point x="862" y="310" type="line"/>
      <point x="1192" y="1316" type="line"/>
      <point x="1572" y="1316" type="line"/>
      <point x="1572" y="0" type="line"/>
      <point x="1312" y="0" type="line"/>
      <point x="1312" y="623" type="line" smooth="yes"/>
      <point x="1312" y="652"/>
      <point x="1312" y="686"/>
      <point x="1313" y="724" type="curve" smooth="yes"/>
      <point x="1314" y="763"/>
      <point x="1319" y="865"/>
      <point x="1326" y="1030" type="curve"/>
      <point x="1318" y="1030" type="line"/>
      <point x="978" y="0" type="line"/>
    </contour>
  </outline>
</glyph>
<glyph name="f" format="1">
  <advance width="714"/>
  <unicode hex="0066"/>
  <outline>
    <contour>
      <point x="700" y="800" type="line"/>
      <point x="463" y="800" type="line"/>
      <point x="463" y="0" type="line"/>
      <point x="188" y="0" type="line"/>
      <point x="188" y="800" type="line"/>
      <point x="37" y="800" type="line"/>
      <point x="37" y="932" type="line"/>
      <point x="188" y="1006" type="line"/>
      <point x="188" y="1080" type="line" smooth="yes"/>
      <point x="188" y="1309"/>
      <point x="295" y="1410"/>
      <point x="544" y="1410" type="curve" smooth="yes"/>
      <point x="639" y="1410"/>
      <point x="723" y="1396"/>
      <point x="796" y="1368" type="curve"/>
      <point x="726" y="1166" type="line"/>
      <point x="671" y="1183"/>
      <point x="620" y="1192"/>
      <point x="573" y="1192" type="curve" smooth="yes"/>
      <point x="496" y="1192"/>
      <point x="463" y="1141"/>
      <point x="463" y="1069" type="curve" smooth="yes"/>
      <point x="463" y="1006" type="line"/>
      <point x="700" y="1006" type="line"/>
    </contour>
  </outline>
</glyph>
<glyph name="k" format="1">
  <advance width="1143"/>
  <unicode hex="006B"/>
  <outline>
    <contour>
      <point x="408" y="547" type="line"/>
      <point x="527" y="700" type="line"/>
      <point x="809" y="1006" type="line"/>
      <point x="1119" y="1006" type="line"/>
      <point x="719" y="570" type="line"/>
      <point x="1143" y="0" type="line"/>
      <point x="826" y="0" type="line"/>
      <point x="536" y="408" type="line"/>
      <point x="418" y="313" type="line"/>
      <point x="418" y="0" type="line"/>
      <point x="144" y="0" type="line"/>
      <point x="144" y="1400" type="line"/>
      <point x="418" y="1400" type="line"/>
      <point x="418" y="776" type="line"/>
      <point x="404" y="547" type="line"/>
    </contour>
  </outline>
</glyph>
<glyph name="t" format="1">
  <advance width="800"/>
  <unicode hex="0074"/>
  <outline>
    <contour>
      <point x="568" y="201" type="curve" smooth="yes"/>
      <point x="616" y="201"/>
      <point x="674" y="211"/>
      <point x="741" y="232" type="curve"/>
      <point x="741" y="28" type="line"/>
      <point x="672" y="-3"/>
      <point x="588" y="-18"/>
      <point x="489" y="-18" type="curve" smooth="yes"/>
      <point x="269" y="-18"/>
      <point x="174" y="92"/>
      <point x="174" y="315" type="curve" smooth="yes"/>
      <point x="174" y="800" type="line"/>
      <point x="42" y="800" type="line"/>
      <point x="42" y="916" type="line"/>
      <point x="193" y="1008" type="line"/>
      <point x="273" y="1220" type="line"/>
      <point x="448" y="1220" type="line"/>
      <point x="448" y="1006" type="line"/>
      <point x="730" y="1006" type="line"/>
      <point x="730" y="800" type="line"/>
      <point x="448" y="800" type="line"/>
      <point x="448" y="315" type="line" smooth="yes"/>
      <point x="448" y="236"/>
      <point x="496" y="201"/>
    </contour>
  </outline>
</glyph>
<glyph name="z" format="1">
  <advance width="899"/>
  <unicode hex="007A"/>
  <outline>
    <contour>
      <point x="844" y="0" type="line"/>
      <point x="49" y="0" type="line"/>
      <point x="49" y="162" type="line"/>
      <point x="516" y="796" type="line"/>
      <point x="77" y="796" type="line"/>
      <point x="77" y="1006" type="line"/>
      <point x="828" y="1006" type="line"/>
      <point x="828" y="828" type="line"/>
      <point x="374" y="210" type="line"/>
      <point x="844" y="210" type="line"/>
    </contour>
  </outline>
</glyph>
<glyph name="copyright" format="1">
  <advance width="1534"/>
  <unicode hex="00A9"/>
  <outline>
    <contour>
      <point x="805" y="909" type="curve" smooth="yes"/>
      <point x="689" y="909"/>
      <point x="623" y="815"/>
      <point x="623" y="658" type="curve" smooth="yes"/>
      <point x="623" y="490"/>
      <point x="684" y="406"/>
      <point x="805" y="406" type="curve" smooth="yes"/>
      <point x="874" y="406"/>
      <point x="959" y="424"/>
      <point x="1027" y="459" type="curve"/>
      <point x="1027" y="287" type="line"/>
      <point x="955" y="253"/>
      <point x="879" y="236"/>
      <point x="800" y="236" type="curve" smooth="yes"/>
      <point x="677" y="236"/>
      <point x="582" y="273"/>
      <point x="515" y="348" type="curve" smooth="yes"/>
      <point x="448" y="423"/>
      <point x="415" y="527"/>
      <point x="415" y="660" type="curve" smooth="yes"/>
      <point x="415" y="792"/>
      <point x="448" y="895"/>
      <point x="514" y="968" type="curve" smooth="yes"/>
      <point x="581" y="1041"/>
      <point x="674" y="1078"/>
      <point x="793" y="1078" type="curve" smooth="yes"/>
      <point x="882" y="1078"/>
      <point x="974" y="1055"/>
      <point x="1067" y="1008" type="curve"/>
      <point x="1001" y="857" type="line"/>
      <point x="933" y="892"/>
      <point x="868" y="909"/>
    </contour>
    <contour>
      <point x="90" y="658" type="curve" smooth="yes"/>
      <point x="90" y="778"/>
      <point x="120" y="890"/>
      <point x="180" y="995" type="curve" smooth="yes"/>
      <point x="240" y="1100"/>
      <point x="322" y="1183"/>
      <point x="427" y="1244" type="curve" smooth="yes"/>
      <point x="532" y="1305"/>
      <point x="646" y="1335"/>
      <point x="767" y="1335" type="curve" smooth="yes"/>
      <point x="887" y="1335"/>
      <point x="999" y="1305"/>
      <point x="1104" y="1245" type="curve" smooth="yes"/>
      <point x="1209" y="1185"/>
      <point x="1292" y="1102"/>
      <point x="1353" y="997" type="curve" smooth="yes"/>
      <point x="1414" y="892"/>
      <point x="1444" y="779"/>
      <point x="1444" y="658" type="curve" smooth="yes"/>
      <point x="1444" y="540"/>
      <point x="1415" y="429"/>
      <point x="1356" y="325" type="curve" smooth="yes"/>
      <point x="1298" y="221"/>
      <point x="1216" y="138"/>
      <point x="1111" y="75" type="curve" smooth="yes"/>
      <point x="1006" y="13"/>
      <point x="892" y="-18"/>
      <point x="767" y="-18" type="curve" smooth="yes"/>
      <point x="642" y="-18"/>
      <point x="527" y="13"/>
      <point x="422" y="75" type="curve" smooth="yes"/>
      <point x="317" y="137"/>
      <point x="236" y="220"/>
      <point x="177" y="324" type="curve" smooth="yes"/>
      <point x="119" y="428"/>
      <point x="90" y="539"/>
    </contour>
    <contour>
      <point x="218" y="658" type="curve" smooth="yes"/>
      <point x="218" y="559"/>
      <point x="242" y="468"/>
      <point x="291" y="383" type="curve" smooth="yes"/>
      <point x="340" y="298"/>
      <point x="408" y="231"/>
      <point x="493" y="182" type="curve" smooth="yes"/>
      <point x="578" y="133"/>
      <point x="670" y="109"/>
      <point x="767" y="109" type="curve" smooth="yes"/>
      <point x="865" y="109"/>
      <point x="956" y="133"/>
      <point x="1041" y="182" type="curve" smooth="yes"/>
      <point x="1126" y="231"/>
      <point x="1193" y="299"/>
      <point x="1242" y="384" type="curve" smooth="yes"/>
      <point x="1291" y="469"/>
      <point x="1316" y="561"/>
      <point x="1316" y="658" type="curve" smooth="yes"/>
      <point x="1316" y="756"/>
      <point x="1291" y="847"/>
      <point x="1242" y="932" type="curve" smooth="yes"/>
      <point x="1193" y="1017"/>
      <point x="1125" y="1084"/>
      <point x="1040" y="1133" type="curve" smooth="yes"/>
      <point x="955" y="1182"/>
      <point x="864" y="1207"/>
      <point x="767" y="1207" type="curve" smooth="yes"/>
      <point x="668" y="1207"/>
      <point x="576" y="1182"/>
      <point x="491" y="1133" type="curve" smooth="yes"/>
      <point x="406" y="1084"/>
      <point x="340" y="1016"/>
      <point x="291" y="931" type="curve" smooth="yes"/>
      <point x="242" y="846"/>
      <point x="218" y="755"/>
    </contour>
  </outline>
</glyph>
<glyph name="nnadeva" format="1">
  <advance width="1737"/>
  <unicode hex="0923"/>
  <outline>
    <contour>
      <point x="700" y="1121" type="line"/>
      <point x="987" y="1121" type="line"/>
      <point x="987" y="735" type="line"/>
      <point x="987" y="478"/>
      <point x="855" y="296"/>
      <point x="568" y="296" type="curve" smooth="yes"/>
      <point x="276" y="296"/>
      <point x="123" y="487"/>
      <point x="123" y="733" type="curve" smooth="yes"/>
      <point x="123" y="1121" type="line"/>
      <point x="409" y="1121" type="line"/>
      <point x="409" y="673" type="line"/>
      <point x="409" y="569"/>
      <point x="465" y="509"/>
      <point x="551" y="509" type="curve" smooth="yes"/>
      <point x="643" y="509"/>
      <point x="700" y="571"/>
      <point x="700" y="706" type="curve" smooth="yes"/>
    </contour>
    <contour>
      <point x="-30" y="1096" type="line"/>
      <point x="-30" y="1289" type="line"/>
      <point x="1767" y="1289" type="line"/>
      <point x="1767" y="1096" type="line"/>
    </contour>
    <contour>
      <point x="1246" y="1132" type="line"/>
      <point x="1532" y="1132" type="line"/>
      <point x="1532" y="0" type="line"/>
      <point x="1246" y="0" type="line"/>
    </contour>
    <contour>
      <point x="1122" y="1289" type="move" name="top"/>
    </contour>
  </outline>
</glyph>
<glyph name="tadeva" format="1">
  <advance width="1294"/>
  <unicode hex="0924"/>
  <outline>
    <contour>
      <point x="866" y="903" type="line"/>
      <point x="866" y="663" type="line"/>
      <point x="633" y="663" type="line"/>
      <point x="444" y="663"/>
      <point x="374" y="569"/>
      <point x="374" y="449" type="curve" smooth="yes"/>
      <point x="374" y="344"/>
      <point x="419" y="229"/>
      <point x="535" y="45" type="curve"/>
      <point x="296" y="-26" type="line"/>
      <point x="162" y="181"/>
      <point x="100" y="363"/>
      <point x="102" y="520" type="curve" smooth="yes"/>
      <point x="104" y="736"/>
      <point x="240" y="903"/>
      <point x="564" y="903" type="curve" smooth="yes"/>
    </contour>
    <contour>
      <point x="-30" y="1096" type="line"/>
      <point x="-30" y="1289" type="line"/>
      <point x="1324" y="1289" type="line"/>
      <point x="1324" y="1096" type="line"/>
    </contour>
    <contour>
      <point x="804" y="1132" type="line"/>
      <point x="1090" y="1132" type="line"/>
      <point x="1090" y="0" type="line"/>
      <point x="804" y="0" type="line"/>
    </contour>
    <contour>
      <point x="804.0" y="1289.0" type="move" name="top"/>
    </contour>
  </outline>
</glyph>
<glyph name="uvowelsigndeva" format="1">
  <advance width="0"/>
  <unicode hex="0941"/>
  <outline>
    <contour>
      <point x="-699" y="-76" type="line"/>
      <point x="-606" y="-12"/>
      <point x="-505" y="36"/>
      <point x="-355" y="36" type="curve" smooth="yes"/>
      <point x="-131" y="36"/>
      <point x="2" y="-105"/>
      <point x="2" y="-299" type="curve" smooth="yes"/>
      <point x="2" y="-495"/>
      <point x="-158" y="-623"/>
      <point x="-379" y="-623" type="curve" smooth="yes"/>
      <point x="-608" y="-623"/>
      <point x="-809" y="-543"/>
      <point x="-1027" y="-370" type="curve"/>
      <point x="-939" y="-181" type="line"/>
      <point x="-732" y="-354"/>
      <point x="-573" y="-415"/>
      <point x="-439" y="-415" type="curve" smooth="yes"/>
      <point x="-305" y="-415"/>
      <point x="-241" y="-359"/>
      <point x="-241" y="-284" type="curve" smooth="yes"/>
      <point x="-241" y="-220"/>
      <point x="-295" y="-175"/>
      <point x="-372" y="-175" type="curve" smooth="yes"/>
      <point x="-441" y="-175"/>
      <point x="-516" y="-207"/>
      <point x="-594" y="-264" type="curve"/>
    </contour>
    <contour>
      <point x="-493.0" y="0.0" type="move" name="_btm"/>
    </contour>
  </outline>
</glyph>
<glyph name="uuvowelsigndeva" format="1">
  <advance width="0"/>
  <unicode hex="0942"/>
  <outline>
    <contour>
      <point x="-122" y="-581" type="line"/>
      <point x="-205" y="-610"/>
      <point x="-269" y="-618"/>
      <point x="-365" y="-618" type="curve" smooth="yes"/>
      <point x="-576" y="-618"/>
      <point x="-772" y="-485"/>
      <point x="-772" y="-270" type="curve" smooth="yes"/>
      <point x="-772" y="-117"/>
      <point x="-630" y="32"/>
      <point x="-389" y="32" type="curve" smooth="yes"/>
      <point x="-133" y="32"/>
      <point x="62" y="-104"/>
      <point x="294" y="-388" type="curve"/>
      <point x="158" y="-544" type="line"/>
      <point x="-77" y="-269"/>
      <point x="-217" y="-198"/>
      <point x="-361" y="-198" type="curve" smooth="yes"/>
      <point x="-469" y="-198"/>
      <point x="-521" y="-252"/>
      <point x="-521" y="-319" type="curve" smooth="yes"/>
      <point x="-521" y="-381"/>
      <point x="-473" y="-428"/>
      <point x="-377" y="-428" type="curve" smooth="yes"/>
      <point x="-319" y="-428"/>
      <point x="-268" y="-421"/>
      <point x="-187" y="-392" type="curve"/>
    </contour>
    <contour>
      <point x="-493.0" y="0.0" type="move" name="_btm"/>
    </contour>
  </outline>
</glyph>
<glyph name="rrvocalicvowelsigndeva" format="1">
  <advance width="0"/>
  <unicode hex="0944"/>
  <outline>
    <contour>
      <point x="-55" y="-724" type="line"/>
      <point x="-119" y="-748"/>
      <point x="-206" y="-767"/>
      <point x="-291" y="-767" type="curve" smooth="yes"/>
      <point x="-509" y="-767"/>
      <point x="-597" y="-656"/>
      <point x="-597" y="-544" type="curve" smooth="yes"/>
      <point x="-597" y="-408"/>
      <point x="-462" y="-312"/>
      <point x="-248" y="-311" type="curve"/>
      <point x="-209" y="-426" type="line"/>
      <point x="-315" y="-428"/>
      <point x="-381" y="-477"/>
      <point x="-381" y="-535" type="curve" smooth="yes"/>
      <point x="-381" y="-581"/>
      <point x="-344" y="-615"/>
      <point x="-262" y="-615" type="curve" smooth="yes"/>
      <point x="-208" y="-615"/>
      <point x="-161" y="-603"/>
      <point x="-86" y="-573" type="curve"/>
    </contour>
    <contour>
      <point x="-131" y="-429" type="line"/>
      <point x="-222" y="-451"/>
      <point x="-284" y="-459"/>
      <point x="-357" y="-459" type="curve" smooth="yes"/>
      <point x="-585" y="-459"/>
      <point x="-719" y="-345"/>
      <point x="-719" y="-199" type="curve" smooth="yes"/>
      <point x="-719" y="-67"/>
      <point x="-582" y="41"/>
      <point x="-357" y="41" type="curve" smooth="yes"/>
      <point x="-291" y="41"/>
      <point x="-237" y="35"/>
      <point x="-205" y="28" type="curve"/>
      <point x="-205" y="-120" type="line"/>
      <point x="-238" y="-120"/>
      <point x="-281" y="-120"/>
      <point x="-317" y="-120" type="curve" smooth="yes"/>
      <point x="-429" y="-120"/>
      <point x="-472" y="-163"/>
      <point x="-472" y="-212" type="curve" smooth="yes"/>
      <point x="-472" y="-262"/>
      <point x="-428" y="-297"/>
      <point x="-351" y="-297" type="curve" smooth="yes"/>
      <point x="-296" y="-297"/>
      <point x="-248" y="-291"/>
      <point x="-165" y="-269" type="curve"/>
    </contour>
    <contour>
      <point x="-493.0" y="0.0" type="move" name="_btm"/>
    </contour>
  </outline>
</glyph>
<glyph name="awvowelsigndevaKSH" format="1">
  <advance width="651"/>
  <unicode hex="094F"/>
  <outline>
    <contour>
      <point x="235" y="1216" type="line"/>
      <point x="235" y="1505" type="line"/>
      <point x="235" y="1564"/>
      <point x="208" y="1600"/>
      <point x="121" y="1600" type="curve" smooth="yes"/>
      <point x="61" y="1600"/>
      <point x="11" y="1568"/>
      <point x="-96" y="1568" type="curve" smooth="yes"/>
      <point x="-217" y="1568"/>
      <point x="-303" y="1622"/>
      <point x="-380" y="1715" type="curve"/>
      <point x="-291" y="1853" type="line"/>
      <point x="-213" y="1777"/>
      <point x="-159" y="1753"/>
      <point x="-102" y="1753" type="curve" smooth="yes"/>
      <point x="-15" y="1753"/>
      <point x="63" y="1797"/>
      <point x="193" y="1797" type="curve" smooth="yes"/>
      <point x="344" y="1797"/>
      <point x="446" y="1699"/>
      <point x="446" y="1535" type="curve" smooth="yes"/>
      <point x="446" y="1216" type="line"/>
    </contour>
    <contour>
      <point x="96" y="1175" type="line"/>
      <point x="40" y="1291" type="line"/>
      <point x="9" y="1356"/>
      <point x="-31" y="1391"/>
      <point x="-108" y="1391" type="curve" smooth="yes"/>
      <point x="-178" y="1391"/>
      <point x="-237" y="1361"/>
      <point x="-352" y="1361" type="curve" smooth="yes"/>
      <point x="-484" y="1361"/>
      <point x="-587" y="1420"/>
      <point x="-677" y="1517" type="curve"/>
      <point x="-582" y="1646" type="line"/>
      <point x="-497" y="1569"/>
      <point x="-430" y="1542"/>
      <point x="-359" y="1542" type="curve" smooth="yes"/>
      <point x="-256" y="1542"/>
      <point x="-175" y="1585"/>
      <point x="-75" y="1585" type="curve" smooth="yes"/>
      <point x="107" y="1585"/>
      <point x="174" y="1524"/>
      <point x="249" y="1335" type="curve" smooth="yes"/>
      <point x="318" y="1175" type="line"/>
    </contour>
    <component base="aavowelsigndeva"/>
  </outline>
</glyph>
<glyph name="endash" format="1">
  <advance width="1092"/>
  <unicode hex="2013"/>
  <outline>
    <contour>
      <point x="115" y="474" type="line"/>
      <point x="115" y="697" type="line"/>
      <point x="977" y="697" type="line"/>
      <point x="977" y="474" type="line"/>
    </contour>
  </outline>
</glyph>
<glyph name="afii00208" format="1">
  <advance width="1843"/>
  <unicode hex="2015"/>
  <outline>
    <contour>
      <point x="74" y="392" type="line"/>
      <point x="74" y="599" type="line"/>
      <point x="1769" y="599" type="line"/>
      <point x="1769" y="392" type="line"/>
    </contour>
  </outline>
</glyph>
<glyph name="ellipsis" format="1">
  <advance width="1576"/>
  <unicode hex="2026"/>
  <outline>
    <contour>
      <point x="105" y="129" type="curve" smooth="yes"/>
      <point x="105" y="229"/>
      <point x="160" y="282"/>
      <point x="264" y="282" type="curve" smooth="yes"/>
      <point x="363" y="282"/>
      <point x="420" y="226"/>
      <point x="420" y="129" type="curve" smooth="yes"/>
      <point x="420" y="34"/>
      <point x="361" y="-24"/>
      <point x="264" y="-24" type="curve" smooth="yes"/>
      <point x="163" y="-24"/>
      <point x="105" y="32"/>
    </contour>
    <contour>
      <point x="630" y="129" type="curve" smooth="yes"/>
      <point x="630" y="229"/>
      <point x="685" y="282"/>
      <point x="789" y="282" type="curve" smooth="yes"/>
      <point x="889" y="282"/>
      <point x="946" y="226"/>
      <point x="946" y="129" type="curve" smooth="yes"/>
      <point x="946" y="34"/>
      <point x="888" y="-24"/>
      <point x="789" y="-24" type="curve" smooth="yes"/>
      <point x="688" y="-24"/>
      <point x="630" y="32"/>
    </contour>
    <contour>
      <point x="1156" y="129" type="curve" smooth="yes"/>
      <point x="1156" y="229"/>
      <point x="1211" y="282"/>
      <point x="1314" y="282" type="curve" smooth="yes"/>
      <point x="1414" y="282"/>
      <point x="1471" y="226"/>
      <point x="1471" y="129" type="curve" smooth="yes"/>
      <point x="1471" y="34"/>
      <point x="1413" y="-24"/>
      <point x="1314" y="-24" type="curve" smooth="yes"/>
      <point x="1213" y="-24"/>
      <point x="1156" y="32"/>
    </contour>
  </outline>
</glyph>
<glyph name="candrabindusmalldeva" format="1">
  <advance width="0"/>
  <outline>
    <contour>
      <point x="-351" y="1890" type="curve" smooth="yes"/>
      <point x="-267" y="1890"/>
      <point x="-230" y="1833"/>
      <point x="-230" y="1778" type="curve" smooth="yes"/>
      <point x="-230" y="1723"/>
      <point x="-267" y="1665"/>
      <point x="-351" y="1665" type="curve" smooth="yes"/>
      <point x="-430" y="1665"/>
      <point x="-472" y="1721"/>
      <point x="-472" y="1778" type="curve" smooth="yes"/>
      <point x="-472" y="1834"/>
      <point x="-431" y="1890"/>
    </contour>
    <contour>
      <point x="26" y="1560" type="line"/>
      <point x="-79" y="1436"/>
      <point x="-197" y="1377"/>
      <point x="-335" y="1377" type="curve" smooth="yes"/>
      <point x="-469" y="1377"/>
      <point x="-591" y="1434"/>
      <point x="-711" y="1558" type="curve"/>
      <point x="-621" y="1736" type="line"/>
      <point x="-517" y="1627"/>
      <point x="-443" y="1585"/>
      <point x="-342" y="1585" type="curve" smooth="yes"/>
      <point x="-240" y="1585"/>
      <point x="-163" y="1629"/>
      <point x="-78" y="1730" type="curve"/>
    </contour>
    <contour>
      <point x="-493.0" y="1289.0" type="move" name="_top"/>
    </contour>
  </outline>
</glyph>
<glyph name="ddhaddhadeva" format="1">
  <advance width="1230"/>
  <outline>
    <contour>
      <point x="1260" y="1096" type="line"/>
      <point x="-30" y="1096" type="line"/>
      <point x="-30" y="1289" type="line"/>
      <point x="1260" y="1289" type="line"/>
    </contour>
    <contour>
      <point x="717" y="1126" type="line"/>
      <point x="1002" y="1126" type="line"/>
      <point x="1002" y="761" type="line"/>
      <point x="655" y="761" type="line"/>
      <point x="408" y="761"/>
      <point x="334" y="664"/>
      <point x="334" y="551" type="curve" smooth="yes"/>
      <point x="334" y="429"/>
      <point x="486" y="325"/>
      <point x="707" y="325" type="curve" smooth="yes"/>
      <point x="873" y="325"/>
      <point x="950" y="376"/>
      <point x="950" y="428" type="curve" smooth="yes"/>
      <point x="950" y="472"/>
      <point x="909" y="497"/>
      <point x="839" y="497" type="curve" smooth="yes"/>
      <point x="757" y="497"/>
      <point x="701" y="447"/>
      <point x="701" y="384" type="curve" smooth="yes"/>
      <point x="701" y="337"/>
      <point x="720" y="297"/>
      <point x="740" y="259" type="curve"/>
      <point x="532" y="236" type="line"/>
      <point x="491" y="295"/>
      <point x="477" y="346"/>
      <point x="477" y="414" type="curve" smooth="yes"/>
      <point x="477" y="539"/>
      <point x="602" y="662"/>
      <point x="831" y="662" type="curve" smooth="yes"/>
      <point x="1057" y="662"/>
      <point x="1176" y="550"/>
      <point x="1176" y="420" type="curve" smooth="yes"/>
      <point x="1176" y="278"/>
      <point x="1020" y="162"/>
      <point x="715" y="162" type="curve" smooth="yes"/>
      <point x="294" y="162"/>
      <point x="72" y="381"/>
      <point x="72" y="607" type="curve" smooth="yes"/>
      <point x="72" y="790"/>
      <point x="210" y="958"/>
      <point x="565" y="958" type="curve" smooth="yes"/>
      <point x="758" y="958" type="line"/>
      <point x="717" y="924" type="line"/>
    </contour>
    <contour>
      <point x="636" y="225" type="line"/>
      <point x="915" y="225" type="line"/>
      <point x="915" y="-122" type="line"/>
      <point x="617" y="-122" type="line"/>
      <point x="400" y="-122"/>
      <point x="324" y="-205"/>
      <point x="324" y="-307" type="curve" smooth="yes"/>
      <point x="324" y="-421"/>
      <point x="451" y="-505"/>
      <point x="675" y="-505" type="curve" smooth="yes"/>
      <point x="857" y="-505"/>
      <point x="910" y="-465"/>
      <point x="910" y="-422" type="curve" smooth="yes"/>
      <point x="910" y="-383"/>
      <point x="874" y="-357"/>
      <point x="803" y="-357" type="curve" smooth="yes"/>
      <point x="721" y="-357"/>
      <point x="660" y="-404"/>
      <point x="660" y="-463" type="curve" smooth="yes"/>
      <point x="660" y="-510"/>
      <point x="675" y="-550"/>
      <point x="702" y="-587" type="curve"/>
      <point x="490" y="-604" type="line"/>
      <point x="458" y="-545"/>
      <point x="445" y="-496"/>
      <point x="445" y="-427" type="curve" smooth="yes"/>
      <point x="445" y="-331"/>
      <point x="552" y="-213"/>
      <point x="791" y="-213" type="curve" smooth="yes"/>
      <point x="1023" y="-213"/>
      <point x="1112" y="-315"/>
      <point x="1112" y="-424" type="curve" smooth="yes"/>
      <point x="1112" y="-551"/>
      <point x="984" y="-664"/>
      <point x="684" y="-664" type="curve" smooth="yes"/>
      <point x="284" y="-664"/>
      <point x="68" y="-461"/>
      <point x="68" y="-258" type="curve" smooth="yes"/>
      <point x="68" y="-95"/>
      <point x="191" y="62"/>
      <point x="532" y="62" type="curve" smooth="yes"/>
      <point x="677" y="62" type="line"/>
      <point x="636" y="25" type="line"/>
    </contour>
    <contour>
      <point x="487.0" y="-653.0" type="move" name="btm"/>
    </contour>
    <contour>
      <point x="687.0" y="1289.0" type="move" name="top"/>
    </contour>
  </outline>
</glyph>
<glyph name="evowelsignrephdeva" format="1">
  <advance width="0"/>
  <outline>
    <component base="evowelsigndeva"/>
    <component base="rephanusvaradeva" xOffset="55"/>
    <contour>
      <point x="-493.0" y="1289.0" type="move" name="_top"/>
    </contour>
  </outline>
</glyph>
<glyph name="havadeva" format="1">
  <advance width="1572"/>
  <outline>
    <contour>
      <point x="791" y="602" type="curve" smooth="yes"/>
      <point x="1202" y="602"/>
      <point x="1422" y="400"/>
      <point x="1422" y="118" type="curve" smooth="yes"/>
      <point x="1422" y="-310" type="line"/>
      <point x="1170" y="-310" type="line"/>
      <point x="1170" y="126" type="line"/>
      <point x="1170" y="275"/>
      <point x="1089" y="386"/>
      <point x="809" y="386" type="curve" smooth="yes"/>
      <point x="502" y="386"/>
      <point x="394" y="238"/>
      <point x="394" y="87" type="curve" smooth="yes"/>
      <point x="394" y="-47"/>
      <point x="464" y="-162"/>
      <point x="720" y="-364" type="curve"/>
      <point x="554" y="-494" type="line"/>
      <point x="263" y="-276"/>
      <point x="152" y="-74"/>
      <point x="152" y="144" type="curve" smooth="yes"/>
      <point x="152" y="349"/>
      <point x="313" y="602"/>
    </contour>
    <contour>
      <point x="1602" y="1096" type="line"/>
      <point x="-30" y="1096" type="line"/>
      <point x="-30" y="1289" type="line"/>
      <point x="1602" y="1289" type="line"/>
    </contour>
    <contour>
      <point x="1085" y="1114" type="line"/>
      <point x="1370" y="1114" type="line"/>
      <point x="1370" y="745" type="line"/>
      <point x="494" y="745" type="line"/>
      <point x="385" y="745"/>
      <point x="346" y="702"/>
      <point x="346" y="643" type="curve" smooth="yes"/>
      <point x="346" y="585"/>
      <point x="395" y="544"/>
      <point x="491" y="519" type="curve"/>
      <point x="305" y="372" type="line"/>
      <point x="144" y="464"/>
      <point x="69" y="571"/>
      <point x="69" y="697" type="curve" smooth="yes"/>
      <point x="69" y="830"/>
      <point x="170" y="939"/>
      <point x="387" y="939" type="curve" smooth="yes"/>
      <point x="1124" y="939" type="line"/>
      <point x="1085" y="890" type="line"/>
    </contour>
    <contour>
      <point x="1188" y="25" type="curve"/>
      <point x="1188" y="-184" type="line"/>
      <point x="1131" y="-216"/>
      <point x="1080" y="-232"/>
      <point x="982" y="-232" type="curve" smooth="yes"/>
      <point x="764" y="-232"/>
      <point x="633" y="-98"/>
      <point x="633" y="47" type="curve" smooth="yes"/>
      <point x="633" y="169"/>
      <point x="733" y="270"/>
      <point x="927" y="270" type="curve" smooth="yes"/>
      <point x="1056" y="270"/>
      <point x="1157" y="242"/>
      <point x="1230" y="204" type="curve"/>
      <point x="1229" y="55" type="line"/>
      <point x="1147" y="100"/>
      <point x="1099" y="119"/>
      <point x="993" y="119" type="curve" smooth="yes"/>
      <point x="898" y="119"/>
      <point x="845" y="72"/>
      <point x="845" y="15" type="curve" smooth="yes"/>
      <point x="845" y="-43"/>
      <point x="901" y="-78"/>
      <point x="972" y="-78" type="curve" smooth="yes"/>
      <point x="1062" y="-78"/>
      <point x="1123" y="-47"/>
    </contour>
    <contour>
      <point x="1170" y="-310" type="move" name="btm"/>
    </contour>
    <contour>
      <point x="1085" y="1289" type="move" name="top"/>
    </contour>
  </outline>
</glyph>
<glyph name="ssattadeva" format="1">
  <advance width="1293"/>
  <outline>
    <contour>
      <point x="908" y="618" type="line"/>
      <point x="787" y="531" type="line"/>
      <point x="363" y="1096" type="line"/>
      <point x="484" y="1183" type="line"/>
    </contour>
    <contour>
      <point x="1323" y="1096" type="line"/>
      <point x="-30" y="1096" type="line"/>
      <point x="-30" y="1289" type="line"/>
      <point x="1323" y="1289" type="line"/>
    </contour>
    <contour>
      <point x="841" y="801" type="curve" smooth="yes"/>
      <point x="841" y="1132" type="line"/>
      <point x="1121" y="1132" type="line"/>
      <point x="1121" y="786" type="line"/>
      <point x="1121" y="554"/>
      <point x="973" y="389"/>
      <point x="654" y="389" type="curve" smooth="yes"/>
      <point x="353" y="389"/>
      <point x="142" y="546"/>
      <point x="142" y="833" type="curve" smooth="yes"/>
      <point x="142" y="1187" type="line"/>
      <point x="422" y="1187" type="line"/>
      <point x="422" y="767" type="line"/>
      <point x="422" y="664"/>
      <point x="523" y="614"/>
      <point x="613" y="614" type="curve" smooth="yes"/>
      <point x="767" y="614"/>
      <point x="841" y="672"/>
    </contour>
    <contour>
      <point x="661" y="390" type="line"/>
      <point x="515" y="390"/>
      <point x="435" y="318"/>
      <point x="436" y="220" type="curve" smooth="yes"/>
      <point x="438" y="126"/>
      <point x="513" y="60"/>
      <point x="658" y="60" type="curve" smooth="yes"/>
      <point x="770" y="60"/>
      <point x="873" y="82"/>
      <point x="1009" y="138" type="curve"/>
      <point x="1068" y="-97" type="line"/>
      <point x="927" y="-151"/>
      <point x="832" y="-172"/>
      <point x="682" y="-172" type="curve" smooth="yes"/>
      <point x="367" y="-172"/>
      <point x="153" y="6"/>
      <point x="153" y="245" type="curve" smooth="yes"/>
      <point x="153" y="438"/>
      <point x="301" y="601"/>
      <point x="597" y="601" type="curve"/>
    </contour>
    <contour>
      <point x="514.0" y="-166.0" type="move" name="btm"/>
    </contour>
    <contour>
      <point x="841.0" y="1289.0" type="move" name="top"/>
    </contour>
  </outline>
</glyph>
<glyph name="vattudeva" format="1">
  <advance width="0"/>
  <outline>
    <contour>
      <point x="-285" y="57" type="line"/>
      <point x="154" y="-215" type="line"/>
      <point x="24" y="-399" type="line"/>
      <point x="-403" y="-128" type="line"/>
      <point x="-286" y="-128" type="line"/>
      <point x="-715" y="-401" type="line"/>
      <point x="-852" y="-209" type="line"/>
      <point x="-422" y="57" type="line"/>
    </contour>
    <contour>
      <point x="-493.0" y="0.0" type="move" name="_btm"/>
    </contour>
  </outline>
</glyph>
<glyph name="yaprehalfdeva" format="1">
  <advance width="833"/>
  <outline>
    <contour>
      <point x="-30" y="1096" type="line"/>
      <point x="-30" y="1289" type="line"/>
      <point x="863" y="1289" type="line"/>
      <point x="863" y="1096" type="line"/>
    </contour>
    <contour>
      <point x="330" y="1131" type="line"/>
      <point x="616" y="1131" type="line"/>
      <point x="616" y="952" type="line"/>
      <point x="616" y="738"/>
      <point x="526" y="609"/>
      <point x="298" y="539" type="curve"/>
      <point x="301" y="637" type="line"/>
      <point x="369" y="538"/>
      <point x="463" y="479"/>
      <point x="584" y="479" type="curve" smooth="yes"/>
      <point x="750" y="479"/>
      <point x="891" y="517"/>
      <point x="1063" y="674" type="curve"/>
      <point x="1177" y="460" type="line"/>
      <point x="1046" y="324"/>
      <point x="866" y="246"/>
      <point x="667" y="246" type="curve" smooth="yes"/>
      <point x="392" y="246"/>
      <point x="152" y="413"/>
      <point x="23" y="666" type="curve"/>
      <point x="23" y="671" type="line"/>
      <point x="244" y="746"/>
      <point x="330" y="824"/>
      <point x="330" y="967" type="curve" smooth="yes"/>
    </contour>
  </outline>
</glyph>
